<?xml version="1.0" standalone="no"?>
<!DOCTYPE svg PUBLIC "-//W3C//DTD SVG 20010904//EN"
 "http://www.w3.org/TR/2001/REC-SVG-20010904/DTD/svg10.dtd">
<svg version="1.0" xmlns="http://www.w3.org/2000/svg"
 width="271.000000pt" height="271.000000pt" viewBox="0 0 271.000000 271.000000"
 preserveAspectRatio="xMidYMid meet">
<metadata>
Created by potrace 1.11, written by Peter Selinger 2001-2013
</metadata>
<g transform="translate(0.000000,271.000000) scale(0.100000,-0.100000)"
fill="#000000" stroke="none">
<path d="M210 2569 c0 -101 3 -138 13 -141 6 -2 112 -3 234 -3 l223 1 2 -862
3 -862 65 73 c36 40 70 74 75 74 6 0 39 -33 75 -73 l65 -73 3 862 2 862 452
-1 453 -1 77 69 c77 68 87 81 69 88 -5 2 -29 21 -53 43 -24 22 -54 49 -67 60
-23 20 -38 20 -857 21 l-834 1 0 -138z"/>
<path d="M1230 1818 c0 -191 1 -348 3 -348 1 0 26 9 55 20 60 23 140 25 195 6
33 -12 37 -12 38 3 1 9 2 97 2 195 l2 180 50 12 c130 34 336 -7 442 -87 55
-41 119 -127 145 -194 47 -120 38 -265 -23 -372 -54 -94 -134 -153 -329 -243
-12 -6 -16 -35 -18 -151 l-2 -144 188 -311 188 -311 166 0 166 0 -92 141 c-51
77 -154 234 -229 348 -76 114 -137 211 -137 216 0 5 12 14 27 21 59 27 202
155 258 231 126 172 176 377 134 554 -27 117 -116 271 -218 375 -80 82 -212
158 -331 192 -31 9 -142 13 -362 14 l-318 2 0 -349z"/>
<path d="M1302 1370 c-136 -79 -123 -280 23 -336 157 -60 306 99 236 251 -47
103 -161 140 -259 85z"/>
<path d="M1230 479 l0 -470 63 47 c34 26 67 51 73 56 7 5 38 -12 83 -47 39
-30 71 -51 72 -47 3 30 1 903 -2 907 -3 2 -27 -1 -54 -8 -71 -17 -139 -12
-196 17 -18 9 -34 16 -36 16 -1 0 -3 -212 -3 -471z"/>
</g>
</svg>
